<svg id="building-pin-locations" height="512" viewBox="0 0 64 64" width="512" xmlns="http://www.w3.org/2000/svg"><path d="m6 49h40v3h-40z" fill="#3e3d42"/><path d="m9 7h40v42h-40z" fill="#e0e0e2"/><path d="m26 11h6v8h-6z" fill="#2488ff"/><path d="m39 11h6v8h-6z" fill="#2488ff"/><path d="m39 23h6v8h-6z" fill="#2488ff"/><path d="m52 3v4h-3-40-3v-4z" fill="#3e3d42"/><path d="m34 43v6h-10v-6a5 5 0 1 1 10 0z" fill="#b39a7c"/><path d="m29.5 38.05c-.167-.016-.329-.05-.5-.05a5 5 0 0 0 -5 5v6h1v-6a4.986 4.986 0 0 1 4.5-4.95z" fill="#957856"/><path d="m26 23h6v8h-6z" fill="#2488ff"/><path d="m13 23h6v8h-6z" fill="#2488ff"/><ellipse cx="48" cy="58.5" fill="#d80027" rx="7" ry="2.5"/><path d="m58 41c0 5.523-10 17-10 17s-10-11.477-10-17a10 10 0 0 1 20 0z" fill="#ff5023"/><circle cx="48" cy="41" fill="#ffda44" r="4"/><path d="m24 18h10v2h-10z" fill="#003f8a"/><path d="m37 18h10v2h-10z" fill="#003f8a"/><path d="m11 30h10v2h-10z" fill="#003f8a"/><path d="m24 30h10v2h-10z" fill="#003f8a"/><path d="m37 30h8v2h-8z" fill="#003f8a"/><path d="m9 7h40v1h-40z" fill="#2d2d30"/><path d="m13 11h6v8h-6z" fill="#2488ff"/><g fill="#006df0"><path d="m13 11v6.273l5.308-6.273z"/><path d="m26 11v6.273l5.308-6.273z"/><path d="m39 11v6.273l5.308-6.273z"/><path d="m39 23v6.273l5.308-6.273z"/><path d="m26 23v6.273l5.308-6.273z"/><path d="m13 23v6.273l5.308-6.273z"/></g><path d="m11 18h10v2h-10z" fill="#003f8a"/></svg>